<?xml version="1.0" encoding="UTF-8" standalone="no"?>
<!-- Created with Inkscape (http://www.inkscape.org/) -->

<svg
   version="1.1"
   id="svg2"
   width="157.84"
   height="157.64"
   viewBox="0 0 157.84 157.64"
   sodipodi:docname="reed-college-griffin-white.eps"
   xmlns:inkscape="http://www.inkscape.org/namespaces/inkscape"
   xmlns:sodipodi="http://sodipodi.sourceforge.net/DTD/sodipodi-0.dtd"
   xmlns="http://www.w3.org/2000/svg"
   xmlns:svg="http://www.w3.org/2000/svg">
  <defs
     id="defs6" />
  <sodipodi:namedview
     id="namedview4"
     pagecolor="#ffffff"
     bordercolor="#000000"
     borderopacity="0.25"
     inkscape:showpageshadow="2"
     inkscape:pageopacity="0.0"
     inkscape:pagecheckerboard="0"
     inkscape:deskcolor="#d1d1d1" />
  <g
     id="g8"
     inkscape:groupmode="layer"
     inkscape:label="ink_ext_XXXXXX"
     transform="matrix(1.3333333,0,0,-1.3333333,0,157.64)">
    <g
       id="g10"
       transform="scale(0.1)">
      <path
         d="m 449.566,772.984 c 5.395,0.778 10.188,2.989 15.262,4.805 13.563,4.649 25.477,12.039 34.531,23.984 2.891,3.848 3.914,8.161 1.618,12.309 -2.965,5.445 -5.579,11.484 -10.145,15.602 -4.164,3.636 -6.953,7.984 -9.894,12.664 -5.7,8.746 -11.54,17.386 -16.95,26.382 -4.664,7.719 -10.093,8.989 -15.679,3.93 -5.262,-4.73 -10.782,-9.254 -14.711,-15.437 -1.918,-3.051 -4.434,-5.625 -6.559,-8.551 -8.074,-10.988 -14.004,-23.238 -17.68,-36.52 -2.004,-7.242 -3.043,-14.707 -4.429,-22.113 -1.403,-7.488 2.226,-13.207 9.218,-14.879 2.813,-0.633 5.618,-1.238 9.75,-2.129 7.665,-2.968 16.602,-1.343 25.668,-0.047 z m 539.504,8.864 c 0.11,8.308 0.508,16.699 0.45,25.101 -0.008,3.555 -0.633,6.969 -1.27,10.379 -0.508,2.863 -2.91,3.539 -5.059,2.91 -6.765,-2.05 -13.562,-4.031 -20.156,-6.636 -8.347,-3.325 -15.84,-8.407 -23.652,-12.797 -10.449,-5.957 -20.613,-12.414 -29.383,-20.926 -8.059,-7.774 -15.195,-16.359 -19.055,-27.305 -2.5,-7.023 -3.41,-14.504 -4.726,-21.894 -1.867,-10.375 -1.184,-20.504 2.832,-29.992 4.211,-9.833 8.535,-13.11 18.625,-6.43 7.949,5.23 16.004,10.469 24.129,15.43 11.726,7.289 23.078,15.097 33.41,24.46 11.426,10.309 19.297,22.957 22.637,37.575 0.398,3.953 1.14,6.949 1.218,10.125 z M 966.746,426.996 c -2.578,11.27 -9.656,20.051 -16.933,28.391 -6.211,7.136 -14.153,11.953 -21.407,17.715 -8.136,6.453 -17.168,11.296 -26.394,15.546 -7.383,3.34 -14.602,7.02 -21.699,10.977 -5.305,2.918 -10.481,2.313 -12.415,-2.129 -1.574,-3.703 -3.183,-7.402 -4.199,-11.379 -3.136,-12.156 -2.636,-24.492 -1.023,-36.719 0.601,-4.773 1.277,-9.668 3.574,-13.972 6.063,-10.969 14.473,-19.805 24.004,-27.297 11.219,-8.75 23.609,-15.625 35.973,-22.391 7.589,-4.191 15.675,-7.199 23,-12.101 3.918,-2.578 6.914,-1.532 9.421,2.746 4.204,7.168 8.657,14.344 9.973,22.469 2.324,9.921 0.215,19.16 -1.875,28.144 z m 16.172,273.938 c -8.301,-1.571 -16.145,-4.543 -24.141,-7.258 -16.101,-5.539 -32.414,-10.574 -48.652,-15.75 -4.602,-1.5 -7.527,-4.918 -6.687,-8.699 0.566,-2.551 1.167,-5.161 2.39,-7.594 4.375,-8.602 10.098,-16.028 16.055,-23.403 11.086,-13.695 25.683,-20.89 41.64,-24.902 10.489,-2.609 21.348,-1.094 31.778,2.027 8.049,2.422 15.389,6.563 22.869,10.219 8.86,4.426 18.06,8.196 26.07,14.348 2.82,2.246 5.21,4.598 3.58,8.625 -2.21,5.355 -4.16,10.668 -7.57,15.394 -6.03,8.289 -11.9,16.575 -19.66,23.278 -7.12,6.238 -15.04,10.656 -23.766,14.011 -4.558,0.047 -9.187,0.684 -13.906,-0.296 z M 974.93,481.617 c 11.394,-1.32 22.199,0.262 32.18,7.403 12.36,8.828 22.05,20.007 30.27,32.898 2.15,3.418 4.19,6.691 5.11,10.859 0.86,4.297 -0.7,6.477 -4.3,7.383 -9.69,2.403 -19.19,5.246 -28.76,7.949 -12.555,3.528 -25.34,5.86 -38.145,8.536 -4.351,0.91 -8.035,4.191 -12.547,3.945 -6.504,-0.391 -12.519,1.894 -18.769,2.812 -12.547,1.758 -24.27,-0.918 -34.817,-8.242 -9.55,-6.59 -16.757,-15.652 -23.054,-25.594 -4.422,-7.003 -3.008,-14.003 4.172,-17.539 10.085,-5.07 20.125,-10.168 30.691,-14.375 13.809,-5.371 28.203,-8.554 41.816,-14.406 5.266,-1.883 10.801,-1.101 16.153,-1.629 z M 312.113,835.84 c 6.18,-1.332 12.825,-0.875 19.235,-0.199 10.636,0.964 21.336,1.672 31.863,4.121 5.371,1.23 10.785,2.441 15.98,4.187 8.282,2.871 16.325,6.34 24.34,10.055 13.766,6.234 27.102,13.516 39.196,23.023 5.597,4.368 10.64,13.539 5.328,23.379 -2.754,5.039 -4.918,10.379 -7.024,15.762 -5.617,14.336 -11.019,28.738 -16.644,42.988 -1.903,4.766 -5.524,6.668 -10.422,5.961 -8.774,-1.301 -16.168,-5.82 -23.238,-11.051 -2.688,-1.957 -5.247,-4.054 -7.965,-6.035 -11.856,-8.64 -23.535,-17.468 -34.379,-27.449 -9.328,-8.625 -17.496,-18.254 -25.043,-28.742 -9.039,-12.41 -15.141,-26.039 -19.367,-40.86 -2.739,-10.417 0.547,-13.5 8.14,-15.14 z m -165.14,89.586 c 6.074,-0.891 12.019,0.336 18.05,0.418 9.383,0.164 18.579,2.441 27.852,3.59 10.316,1.371 20.348,4.687 30.414,7.757 7.445,2.227 14.551,5.704 22.344,6.875 6.762,1.067 12.23,4.196 14.328,11.754 1.394,5.016 1.105,10.086 0.082,14.957 -2.031,9.555 -4.328,19.036 -5.34,28.75 -0.683,7.113 -1.437,14.323 -2.922,21.313 -2.593,12.39 -3.336,25.06 -3.886,37.63 -0.387,8.96 -5.582,12.48 -13.207,8.31 -1.829,-0.98 -3.758,-1.91 -5.321,-3.23 -11.023,-9.42 -22.164,-18.73 -32.887,-28.51 -12.859,-11.8 -24.492,-25 -36.421,-37.774 -11.707,-12.598 -23.024,-25.633 -32.961,-39.965 -3.41,-4.934 -8.008,-9.082 -10.434,-14.672 -3.543,-8.227 -3.973,-13.785 6.25,-14.945 0.59,-0.039 1.195,-0.25 2.859,-0.614 6.227,-2.289 13.84,-0.433 21.2,-1.644 z M 1082,901.484 c -14.5,-5.918 -28.72,-12.304 -40.11,-23.918 -2.35,-2.375 -4.92,-4.824 -5.84,-8.218 -2.1,-7.809 -4.28,-15.715 -1.72,-24.043 1.73,-5.602 2.93,-11.442 4.37,-17.039 2.23,-8.953 4.28,-18.301 4.19,-27.286 -0.15,-16.886 -6.43,-31.554 -19.34,-42.48 -7.37,-6.273 -15.15,-11.859 -23.3,-16.762 -8.516,-5.113 -16.863,-10.64 -25.965,-14.574 -4.785,-2.07 -6.594,-6.484 -4.922,-10.277 1.399,-3.293 6.121,-4.164 10.598,-2.203 17.715,7.816 35.509,15.558 54.979,17.472 9.87,0.973 18.69,-1.543 25.88,-9.004 6.19,-6.359 9.5,-14.718 13,-22.816 2.96,-7.016 6.13,-13.848 10.92,-19.645 6.26,-7.746 13.86,-12.687 23.89,-12.363 10.56,0.262 20.64,3.152 30.23,7.727 5.53,2.578 10.92,5.816 15.16,10.668 7.71,8.882 7.67,19.625 5.43,30.187 -2.04,9.543 -5.52,18.875 -8.41,28.293 -0.46,1.457 -0.68,3.512 -2.74,3.317 -1.79,-0.223 -2.19,-2.051 -2.67,-3.622 -1.36,-5.21 -3.4,-9.972 -6.73,-14.293 -4.65,-6.164 -10.58,-10.328 -17.11,-13.304 -12.74,-5.977 -25.66,-8.844 -38.67,-0.137 -7.18,4.801 -11.99,12.957 -9.89,20.34 3.85,13.504 12.36,23.101 24.63,29.121 10,4.836 19.8,10.016 31.09,11.473 11.39,1.355 22.33,2.375 31.21,-7.711 2.6,-2.875 4.72,-6.172 7.45,-8.946 1.25,-1.273 2.76,-2.023 4.46,-1.05 1.59,0.91 1.71,2.632 1.33,4.226 -0.78,3.414 -1.66,6.684 -2.66,9.942 -2.61,8.617 -4.81,17.25 -8.52,25.476 -2.53,5.656 -4.01,11.953 -6.54,17.707 -1.82,4.231 -4.92,7.207 -9.01,9.215 -10.86,5.301 -21.65,3.402 -32.38,0.035 -14.11,-4.59 -27.99,-9.734 -40.89,-17.523 -3.56,-2.067 -7.23,-3.996 -10.88,-5.906 -2.66,-1.418 -4.71,-0.641 -6.2,2 -2.27,3.925 -1.77,8.261 -0.93,12.257 3.46,16.688 13.59,27.727 27.7,35.348 6.4,3.441 13.38,4.629 20.23,6.285 5.85,1.313 11.49,0.68 17.14,-1.644 4.43,-1.965 7.59,-5.325 10.91,-8.707 1.69,-1.676 3.88,-4.7 6.49,-2.536 2.23,1.762 1.65,5.036 0.42,7.747 -0.06,0.183 -0.15,0.351 -0.24,0.562 -4.84,9.477 -9.57,18.988 -14.53,28.305 -5.2,9.961 -12.13,17.683 -23.96,18.422 -5.74,2.535 -11.81,2.199 -17.55,-0.118 z m 78.22,-497.613 c 0.75,5.137 0.66,10.285 -0.63,15.344 -2.72,10.644 -10.75,16.426 -19.18,21.465 -8.35,4.988 -17.69,7.644 -26.62,11.23 -6.9,2.781 -14.06,3.524 -21.32,3.418 -2.63,-0.058 -5.59,-0.683 -7.06,1.844 -1.61,2.707 -0.61,5.918 0.96,8.312 3.03,4.649 6.91,8.575 11.82,10.957 7.61,3.731 15.81,3.387 23.86,2.704 9.74,-0.868 18.85,-4.766 27.63,-9.247 10.59,-5.402 17.6,-14.054 19.34,-26.73 0.28,-2.344 0.44,-5.359 3.06,-5.75 2.93,-0.43 3.23,3.016 4.44,4.98 0.35,0.594 0.33,1.504 0.57,2.196 1.14,3.613 2.27,7.363 3.45,10.976 3.63,10.723 4.37,21.828 1.51,32.61 -3.5,13.359 -12.48,22.664 -23.84,29.043 -12.52,6.953 -26.06,9.91 -40.14,7.207 -20.18,-3.996 -31.78,-19.18 -40.9,-36.848 -3.95,-7.703 -7.81,-15.574 -12.04,-23.191 -3.43,-6.27 -8.78,-9.426 -15.62,-10.618 -5.74,-0.945 -11.41,-1.015 -17.14,-0.769 -2.67,0.047 -5.4,-0.742 -7.82,0.801 -2.45,1.57 -5.14,2.07 -7.83,2.734 -6.8,1.609 -13.58,3.133 -20.286,5.106 -5.313,1.582 -10.579,3.488 -15.633,5.761 -4.934,2.199 -8.926,2.024 -11.035,-1.355 -2.375,-3.918 -1.203,-7.883 3.386,-11.446 0.891,-0.695 1.895,-1.289 2.911,-1.718 8.203,-3.633 16.613,-6.633 24.257,-11.465 10.88,-6.945 21.52,-14.043 29.84,-24.492 6.3,-7.864 8.34,-16.477 4.87,-26.438 -1.04,-3.047 -2.67,-5.73 -3.88,-8.73 -4.72,-11.102 -8.31,-22.617 -11.72,-34.246 -2.21,-7.551 -4.02,-15.032 -2.92,-23.321 2.94,-22.277 16.72,-34.336 34.86,-42.754 2.54,-1.125 5.32,-0.156 7.89,-0.996 13.85,-4.726 24.87,-0.871 33.27,10.86 9.5,13.328 15.08,28.172 17.87,44.472 0.38,2.286 2.33,5.633 -0.22,7.051 -2.55,1.395 -4.94,-1.359 -6.72,-3.508 -2.76,-3.261 -6.21,-5.547 -10.1,-6.922 -10.93,-3.964 -21.74,-3.046 -32.58,0.36 -10.25,3.195 -20.15,15.265 -20.4,25.879 -0.6,25.695 19.08,40.976 41.55,38.066 11.1,-1.387 20.87,-7.234 30.69,-12.539 8.39,-4.578 14.88,-11.004 17.22,-21.023 1.01,-4.453 0.71,-8.977 0.64,-13.555 -0.03,-2.148 -0.43,-4.973 2.19,-5.742 2.45,-0.774 4.28,1.316 5.54,3.261 1.86,2.879 3.39,5.848 5,8.856 6.62,12.246 13.26,24.551 15.25,38.762 0.6,3.054 1.33,6.062 1.76,9.148 z M 911.785,919.234 c 10.188,-1.425 20.313,-1.382 29.922,2.692 10.156,4.379 18.563,11.683 25.676,20.492 0.664,0.848 1.187,1.781 0.508,2.934 -0.762,1.109 -1.828,0.644 -2.817,0.371 -7.871,-2.465 -16.004,-4.352 -24.121,-3.766 -18.183,1.313 -34.473,8.602 -49.402,19.293 -12.129,8.723 -24.043,17.77 -36.067,26.684 -1.296,0.996 -2.82,1.757 -2.254,3.722 0.508,1.782 2.071,1.746 3.543,1.899 11.372,0.695 22.168,-2.278 32.942,-5.34 6.621,-1.824 13.371,-2.817 19.773,-5.61 2.883,-1.25 6.543,-0.3 9.68,-1.05 8.262,-1.969 16.633,-3.446 24.844,-5.856 4.258,-1.265 8.984,-2.754 13.847,-2.652 5.391,0.144 9.993,-3.395 15.235,-4.578 11.894,-2.711 22.883,-7.18 26.986,-21.203 0.57,-1.95 2.36,-2.161 4.09,-1.219 1.94,1.023 3.29,2.625 3.93,4.746 2.27,7.691 5.44,15.152 6.11,23.238 0.32,4.188 0.49,8.282 -0.59,12.418 -2.39,9.344 -8.51,15.141 -15.761,20.571 -10.586,7.96 -22.304,13.32 -34.265,18.25 -4.25,1.73 -8.137,1.46 -12.207,-1.4 -10.254,-7.24 -20.442,-14.95 -32.524,-18.54 -13.347,-4.11 -26.101,-2.37 -38.074,4.87 -13.633,8.19 -23.152,20.48 -30.281,34.97 -3.086,6.35 -1.758,9.57 4.859,10.85 10.664,2.1 21.379,1.32 32.024,-0.28 3.879,-0.53 6.336,-3.26 6.613,-7.4 0.445,-6.84 0.828,-13.68 1.148,-20.5 0.332,-5.1 0.891,-10.04 2.727,-14.72 1.164,-3.03 3.43,-3.83 6.211,-2.1 1.582,1 2.961,2.22 4.258,3.63 6.394,6.69 11.132,14.64 15.918,22.45 3.211,5.35 6.035,6.42 11.601,3.86 3.418,-1.45 6.594,-3.42 9.832,-5.18 1.836,-0.98 3.703,-1.43 5.539,-0.17 1.739,1.3 1.387,3.09 1.184,4.96 -0.93,8.75 -3.625,17.02 -7.024,24.96 -2.812,6.39 -5.808,12.92 -11.503,17.25 -8.895,6.77 -19.012,10.82 -29.739,12.94 -9.246,1.74 -18.484,3.38 -27.769,4.64 -8.696,1.16 -17.539,2.7 -26.262,2.34 -10.41,-0.41 -20.559,1.78 -30.918,1.57 -7.324,-0.15 -14.68,0.93 -21.992,1.55 -12.84,1.06 -25.449,2.95 -37.559,8.21 -11.863,5.17 -22.109,12.95 -32.468,20.58 -2.969,2.17 -4.231,1.84 -5.071,-1.94 -0.234,-0.99 -0.41,-2.08 -0.398,-3.19 0.254,-12.78 4.168,-24.7 8.75,-36.26 4.566,-11.66 11.101,-22.22 17.586,-32.81 2.793,-4.59 1.933,-8.95 -2.453,-11.59 -7.696,-4.72 -14.149,-11.06 -20.211,-17.77 -8.926,-9.63 -15.254,-21.51 -22.207,-32.796 -5.266,-8.465 -10.5,-16.891 -14.368,-26.18 -6.25,-15.183 -13.437,-29.902 -21.906,-43.851 -2.43,-3.961 -4.48,-8.395 -8.14,-11.207 -8.567,-6.625 -17.344,-13.008 -28.645,-13.746 -5.84,-0.34 -8.113,-6.125 -5,-11.344 0.859,-1.336 1.98,-2.539 2.891,-3.844 2.976,-4.035 6.992,-6.926 10.859,-9.914 11.563,-8.848 23.75,-15.203 38.977,-11.934 11.011,2.274 19.48,7.352 24.39,18.235 0.781,1.797 1.809,4.242 4.172,3.398 2.285,-0.859 1.399,-3.359 1.035,-5.176 -1.164,-5.839 -2.832,-11.699 -3.699,-17.586 -1.926,-12.871 -0.012,-25.308 3.855,-37.648 5.625,-18.023 17.012,-28.641 35.04,-31.465 17.097,-2.738 35.554,10.817 39.953,27.606 0.593,2.379 1.48,4.664 2.515,6.945 2.297,5.348 3.293,11.117 3.586,16.906 0.313,5.34 0.535,10.727 2.207,15.813 0.481,1.48 0.567,3.601 2.52,3.609 1.875,-0.016 2.219,-1.996 2.668,-3.531 1.875,-6.527 2.886,-13.418 5.789,-19.606 2.597,-5.718 4.89,-11.5 9.035,-16.367 7.051,-8.308 15.555,-14.531 24.5,-20.156 8.32,-5.395 16.992,-10.063 27.187,-9.941 2.508,0.113 5.118,0.25 6.122,3.238 1.105,3.242 1.566,6.316 -1.227,9.254 -10.922,11.511 -17.297,25.761 -21.516,41.035 -4.55,16.25 -4.531,33.269 -5.117,50.101 -0.195,5.649 -0.09,11.407 0.188,17.106 0.281,6.449 0.633,13.004 1.504,19.512 0.64,4.511 4.39,7.179 7.996,5.863 5.937,-2.125 11.867,-4.309 17.343,-7.324 12.454,-6.922 25.332,-12.442 39.075,-15.785 1.59,-0.336 3.179,-0.79 4.812,-1.036 z M 608.523,392.445 c -8.878,-0.527 -17.761,-1.043 -26.41,-3.66 -8.136,-2.402 -13.59,-8.781 -14.183,-16.972 -0.442,-5.559 0.023,-11.086 2.019,-16.223 7.168,-18.309 14.793,-36.563 25.375,-53.086 5.094,-8.008 10.985,-15.527 17.262,-22.578 6.758,-7.5 13.699,-14.91 21.492,-21.453 4.445,-3.625 9.328,-6.524 14.035,-9.746 9.422,-6.543 19.055,-12.95 29.641,-17.442 7.293,-3.097 14.871,-5.371 22.644,-6.926 4.915,-0.984 6.985,-4.754 4.942,-8.671 -2.863,-5.176 -5.672,-10.43 -9.102,-15.223 -12.715,-17.707 -27.019,-33.945 -42.89,-48.606 -6.387,-5.828 -13.848,-10.25 -19.864,-16.597 -7.605,-8.032 -5.429,-20.75 4.446,-25.313 1.035,-0.437 2.097,-0.949 3.015,-1.57 9.629,-6.527 20.371,-10.3204 30.938,-14.5079 6.633,-2.6328 13.562,-4.0898 20.39,-5.9492 4.93,-1.2617 9.629,-3.3633 14.93,-3.9102 6.672,-0.6601 13.574,-1.0117 19.914,-3.7304 4.492,-1.8907 6.426,-5.3711 5.117,-10.2696 -1.242,-5 -2.988,-9.8125 -7.707,-12.7109 -1.675,-1.0195 -3.316,-2.5 -3.047,-4.8594 0.293,-2.3711 2.278,-3.0117 4.094,-3.8711 7.844,-3.3711 15.977,-2.1211 24.004,-1.789 13.606,0.6796 19.27,5.3593 25.664,20.5078 2.18,5.1797 5.242,9.0507 10.899,9.5195 3.957,0.3125 7.968,0.4102 11.984,0.3906 5.176,-0.1679 8.465,-3.0195 10.086,-8.25 2.539,-8.2187 -0.383,-17.7383 -7.148,-22.5 -1.778,-1.2187 -4.161,-2.2578 -3.614,-5.039 0.496,-2.7813 3.145,-2.6485 5.188,-3.1485 4.519,-1.25 9.136,-0.4101 13.738,-0.9336 18.547,-2.2968 39.746,13.0235 36.289,36.1211 -0.664,4.461 0.867,7.8828 4.387,9.6211 4.715,2.3399 9.929,5.0586 15.144,1.711 5.02,-3.2422 8.086,-8.2422 8.555,-14.5899 0.574,-7.7695 -0.801,-15.2031 -5.457,-21.5625 -1.02,-1.418 -1.887,-3.0469 -0.91,-4.75 0.918,-1.5586 2.5,-1.0391 3.918,-0.8672 4.551,0.3594 8.828,1.7383 13.113,3.1875 11.711,3.7891 21.231,10.2305 26.895,22.1328 4.421,9.2266 5.468,18.7188 3.027,28.7969 -0.691,2.8831 -0.906,5.7501 1.477,8.1331 4.039,4.008 11.89,4.328 16.101,0.519 5.195,-4.621 6.68,-11.0115 6.094,-17.699 -0.449,-5.6132 -1.375,-11.3203 -4.258,-16.3632 -0.762,-1.379 -0.867,-3.129 0.332,-4.5586 1.223,-1.4102 2.637,-0.8282 3.965,-0.3985 4.598,1.5977 7.988,5.1172 12.098,7.6797 12.207,7.6289 19.738,18.8086 22.714,33.5896 1.711,8.399 0.903,16.938 2.512,25.321 0.676,3.519 -0.644,7.238 -3.293,10.058 -3.523,3.578 -7.535,6.5 -11.836,9.078 -9.812,5.723 -18.133,14.262 -29.168,17.961 -5.976,2 -12.148,2.192 -17.969,-0.301 -7.16,-3.078 -14.05,-6.988 -20.976,-10.589 -7.207,-3.809 -14.871,-6.59 -22.332,-9.84 -9.934,-4.348 -19.731,-9.149 -30.012,-12.399 -16.98,-5.32 -33.957,-11.129 -51.75,-13.16 -7.637,-0.871 -15.164,-2.558 -22.801,-2.84 -10.175,-0.441 -20.3,-1.429 -30.578,-1.121 -8.933,0.34 -17.449,2.102 -26.043,4.16 -1.66,0.403 -3.41,1.231 -3.468,3.512 -0.016,2.481 1.64,3.75 3.48,4.488 14.852,6.43 29.051,14.063 42.461,23.5 18.309,12.852 36.062,26.121 51.891,42.223 5.656,5.762 11.671,11.16 17.082,17.207 15.91,17.793 27.636,38.621 38.347,60.039 4.145,8.328 3.196,12.371 -4.082,17.977 -1.304,0.957 -2.476,2.179 -3.789,3.195 -14.195,11.141 -29.312,20.77 -44.558,30.137 -11.993,7.304 -24.336,13.926 -36.985,19.968 -10.242,4.895 -20.699,9.161 -31.304,13.098 -12.969,4.832 -25.762,10.215 -38.665,15.195 -14.277,5.489 -29.21,8.399 -42.714,12.032 -18.907,3.66 -36.707,6.484 -54.786,5.515 z m -6.75,439.801 c -3.742,0.344 -5.453,-2.437 -6.918,-5.527 -4.132,-8.559 -10.367,-15.094 -17.617,-20.668 -7.015,-5.465 -14.687,-9.164 -23.011,-11.785 -6.993,-2.211 -13.914,-4.243 -21.305,-3.68 -3.559,0.289 -7.156,0.293 -10.684,-0.07 -2.988,-0.344 -4.023,-2.219 -2.008,-4.926 2.036,-2.856 4.133,-5.652 6.266,-8.387 5.277,-6.582 11.817,-11.871 17.254,-18.273 5.883,-6.95 12.359,-13.106 19.031,-19.078 2.828,-2.59 4.633,-2.016 5.449,1.785 1.852,8.5 3.348,17.031 5.04,25.636 1.363,6.946 3.003,13.743 6.523,20.008 3.887,6.821 7.816,13.703 14.687,17.715 4.375,2.582 9.161,4.375 13.504,7.012 7.114,4.183 6.621,6.562 2.746,11.156 -1.23,1.356 -1.992,3.285 -3.156,4.688 -1.519,1.914 -3.289,3.578 -5.801,4.394 z m 44.243,223.254 c -1.672,-8.29 -2.571,-16.89 -5.547,-24.8 -2.668,-7.14 -5.11,-14.43 -8.52,-21.32 -3.152,-6.41 -5.535,-13.169 -8.418,-19.653 -2.383,-5.286 -4.715,-10.473 -7.437,-15.524 -4.231,-7.738 -7.524,-16.019 -11.906,-23.621 -1.7,-2.91 -3.04,-6.062 -4.692,-9.066 -3.91,-6.996 -2.433,-14.129 -0.211,-21.149 3.867,-12.367 9.719,-23.64 17,-34.14 9.633,-13.786 20.207,-26.614 34.785,-34.825 9.825,-5.574 20.395,-9.336 31.86,-9.043 3.113,0.075 6.113,-0.617 9.16,-1.113 3.094,-0.492 4.441,-2.301 4.969,-5.605 0.937,-5.871 0.781,-11.735 0.808,-17.637 0.156,-17.266 5.129,-32.891 15.664,-46.172 5.5,-6.867 13.449,-9.57 21.867,-10.168 14.102,-0.973 24.668,5.723 34.153,16.305 9.199,10.297 16.316,21.664 21.133,34.769 2.117,5.922 5.195,6.657 9.121,2.098 7.644,-8.891 16.629,-15.953 26.465,-21.762 8.347,-4.945 16.96,-9.441 26.265,-12.09 8.723,-2.492 10.86,-5.781 9.074,-15.214 -3.484,-18.442 -2.05,-36.692 1.414,-55.008 3.254,-17.356 10.207,-33.274 18.254,-48.637 8.504,-16.227 20.379,-29.434 33.594,-41.535 4.465,-4.024 9.551,-7.305 13.731,-11.758 3.769,-4.148 5.546,-10.664 3.757,-16.09 -0.75,-2.199 -2.429,-2.933 -4.39,-3.586 -6.645,-2.218 -13.489,-3.468 -20.129,-5.773 -12.402,-4.356 -21.707,-12.93 -29.902,-23.242 -4.836,-6.121 -9.844,-12.09 -14.004,-18.739 -8.536,-13.742 -15.711,-28.066 -20.008,-44.015 -2.727,-10.117 -5.403,-20.282 -4.934,-31.004 0.227,-5.774 0.93,-11.563 1.043,-17.324 0.11,-9.903 -3.34,-18.567 -9.805,-25.586 -3.378,-3.664 -7.253,-3.36 -11.113,-0.305 -7.515,6.055 -14.597,12.461 -21.277,19.484 -7.356,7.774 -10.86,17.176 -12.813,27.567 -0.781,4.152 -1.562,8.273 -2.734,12.258 -0.996,3.125 -2.832,5.906 -6.523,5.859 -3.489,-0.031 -5.457,-2.551 -6.922,-5.539 -3.918,-7.969 -7.192,-16.473 -11.797,-24.024 -5.168,-8.496 -11.02,-16.503 -18.496,-23.105 -7.219,-6.336 -14.719,-12.246 -22.992,-17.051 -12.95,-7.402 -27.208,-10.996 -41.446,-13.535 -14.722,-2.598 -29.781,-3.301 -44.922,-1.785 -14.031,1.387 -27.632,5.058 -41.3,8.152 -4.739,1.125 -9.641,2.707 -14.454,3.731 -15.519,3.175 -30.996,7.05 -46.976,7.383 -5.945,0.097 -11.82,1.367 -17.731,-0.301 -3.863,-1.114 -4.879,-4.094 -2.371,-7.473 4.957,-6.863 10.371,-13.379 16.098,-19.519 7.906,-8.45 12.957,-19.004 18.355,-29.278 8.743,-16.789 14.704,-34.746 20.465,-52.746 6.067,-18.777 10.344,-38.125 13.067,-57.91 1.933,-14.012 3.316,-28.106 3.007,-42.254 -0.339,-14.348 0.583,-28.684 -0.058,-43.094 -0.375,-8.117 -0.75,-16.449 -2.606,-23.84 -2.148,-8.628 0.118,-17.046 -2.394,-25.378 -2.254,-7.52 -6.356,-11.54 -13.77,-9.981 -22.586,4.77 -45.402,8.633 -67.574,15.25 -11.535,3.481 -23.383,6.402 -34.5,11.231 -11.164,4.82 -22.683,8.531 -33.867,13.179 -8.082,3.301 -15.688,7.672 -23.266,12.262 -10.488,6.449 -21.054,12.82 -30.664,20.613 -18.312,14.785 -35.113,31.184 -48.722,51.055 -3.672,5.371 -8.438,9.894 -12.766,14.785 -0.957,0.977 -2.039,2.598 -3.684,1.574 -1.683,-1.027 -1.429,-3.047 -0.933,-4.687 1.855,-5.93 3.574,-12.051 5.801,-17.949 4.023,-10.539 8.527,-20.852 13.609,-31.008 6.992,-13.653 15.23,-26.446 24.184,-38.633 9.023,-12.473 19.238,-23.75 29.328,-35.172 10.422,-11.73 22.566,-21.391 34.894,-30.8281 9.707,-7.4609 20.168,-13.3789 30.656,-19.3203 7.008,-3.9804 8.926,-5.9922 5.606,-16.9023 -1.481,-4.707 -2.758,-9.5391 -4.078,-14.2578 -1.778,-6.3789 -3.988,-12.6797 -6.078,-18.961 -1.957,-5.8789 -6.118,-10.539 -11.817,-13.37106 -6.07,-3.03906 -12.496,-5.42969 -18.785,-7.86719 -9.746,-3.85156 -18.68,-0.929687 -27.48,3.57031 -6.786,3.46875 -13.688,6.80864 -20.563,10.02734 -7.39,3.5 -13.25,9.293 -19.887,13.8828 -1.718,1.1875 -3.031,3.3203 -1.925,5.6172 1.027,2.1524 3.125,1.4531 4.945,1.1328 6.176,-1.082 11.969,-3.9609 18.289,-4.1523 6.004,-0.1289 11.047,2.3203 14.945,6.9609 2.95,3.5 2.711,7.3086 -0.457,10.5 -5.062,5.0508 -10.383,9.7891 -15.238,14.961 -4.191,4.5507 -8.742,3.8906 -13.398,1.7578 -6.77,-2.9805 -13.864,-5.2188 -20.973,-6.0782 -10.621,-1.2421 -20.899,-0.5898 -28.613,9.5079 -8.262,10.8632 -17.254,21.1406 -23.594,33.6132 -1.067,2.129 -1.942,4.477 -0.078,6.156 1.941,1.782 3.613,-0.308 5.015,-1.488 10.844,-9.4687 22.446,-10.8086 34.782,-4.02 5.238,2.879 6.636,7.11 3.562,12.571 -2.789,4.98 -6.148,9.609 -10.387,13.488 -2.519,2.199 -5.429,2.832 -8.644,2.121 -13,-2.691 -25.359,-0.422 -37.375,5.078 -3.981,1.821 -6.524,5.012 -8.367,9.012 -5.52,11.852 -10.387,23.879 -13.004,36.809 -0.586,3.074 -0.84,6.16 -0.696,9.296 0.055,1.102 0.5,2.118 1.653,2.469 1.051,0.274 1.746,-0.34 2.387,-1.113 0.734,-0.906 1.621,-1.688 2.168,-2.695 5.859,-11.106 21.265,-12.875 30.898,-10.465 3.523,0.937 5.598,4.441 4.809,8.601 -1.352,7.176 -4.024,14.024 -7.043,20.586 -1.989,4.395 -6.727,5.254 -10.747,6.035 -10.402,1.981 -18.878,7.227 -26.21,14.981 -4.106,4.344 -4.79,10.312 -5.082,15.945 -0.516,10.5 -0.329,20.989 2.511,31.328 0.492,1.797 0.707,4.231 2.953,4.387 2.289,0.156 2.864,-2.219 3.434,-3.957 2.133,-6.434 6.203,-10.242 12.781,-10.906 3.727,-0.305 6.367,1.531 6.653,5.488 0.293,4.52 0.75,9.043 -0.442,13.711 -1.305,4.852 -1.254,10.195 -1.297,15.332 -0.015,11.699 -0.047,23.379 0.633,35.027 0.371,5.969 0.332,12.051 1.617,18.008 0.828,3.821 2.539,6.535 6.215,7.461 4.457,1.125 8.375,0.246 11.039,-4.031 4.988,-8.195 9.5,-16.613 14.891,-24.445 8.594,-12.469 18.683,-23.594 30.062,-33.399 4.692,-3.953 9.028,-8.562 14.246,-11.543 7.676,-4.375 15.09,-9.18 23.188,-12.91 12.348,-5.691 25.242,-9.383 37.902,-13.777 11.008,-3.789 22.477,-5.91 33.949,-7.539 4.59,-0.618 9.368,-0.149 14.082,0.086 1.633,0.039 3.704,0.226 4.098,2.589 0.391,2.332 -1.316,3.094 -2.879,4.024 -6.785,3.984 -14.019,7.058 -20.781,10.879 -10.918,6.218 -21.242,13.621 -31.09,21.679 -6.637,5.36 -13.437,10.516 -20.195,15.762 -11.192,8.426 -20.621,18.836 -29.594,29.715 -10.012,12.09 -19.348,24.668 -26.793,38.82 -7.883,14.961 -11.453,30.985 -11.84,48.125 -0.39,13.262 1.852,26.082 5.457,38.719 1.227,4.191 3.242,8.184 4.625,12.199 2.481,7.176 0.821,9.883 -6.312,10.039 -12.59,0.184 -25.113,1.453 -37.36,4.559 -18.476,4.648 -32.441,15.43 -39.378,34.277 -3.922,10.735 -3.747,22.207 -0.204,33.282 6.438,19.98 18.903,34.492 36.536,44.453 10.656,5.992 21.265,11.902 32.531,16.679 11.008,4.633 22.074,9.254 32.551,14.961 12.015,6.598 24.769,12.047 34.566,22.461 12.145,12.863 17.898,27.938 12.379,45.86 -3.766,12.378 -12.891,19.113 -24.801,21.91 -2.086,0.453 -4.078,1.156 -6.019,2.215 -2.457,1.453 -5.032,1.832 -7.973,1.226 -4.012,-0.781 -8.133,0.11 -12.184,0.121 -17.687,0 -34.699,-3.871 -51.605,-8.601 -10.102,-2.875 -20.156,-5.629 -30.235,-8.598 -7.675,-2.262 -14.992,-5.707 -22.394,-8.949 -9.164,-4.067 -18.227,-8.231 -27.367,-12.285 -12.645,-5.536 -25.531,-10.563 -35.614,-21.016 -10.16,-10.395 -17.261,-22.695 -20.5,-37.496 -3.644,-16.711 -0.589,-32.473 5.379,-47.852 7.028,-18.195 16.856,-34.824 26.793,-51.32 8.981,-14.941 18.633,-29.355 29.024,-43.105 5.621,-7.52 11.195,-14.903 14.605,-23.7 3.61,-9.562 5.438,-19.355 2.469,-29.609 -1.176,-3.879 -3.227,-7.258 -5.039,-10.695 -4.258,-8.27 -9.617,-15.684 -15.758,-22.567 -1.887,-2.07 -2.957,-4.914 -5.269,-6.691 -1.235,-0.957 -2.321,-2.344 -4.039,-1.629 -1.848,0.762 -2.122,2.605 -2.637,4.414 -2.406,8.758 -3.985,17.879 -8.473,25.723 -3.984,7.215 -9.289,13.601 -13.945,20.418 -11.652,17.082 -25.18,32.785 -35.996,50.507 -6,9.817 -10.856,20.215 -14.629,31.407 -6.504,19.23 -6.094,38.527 -3.469,58.117 0.422,3.406 0.602,6.785 1.727,10.109 0.488,1.559 0.453,3.914 -1.231,4.934 -1.719,1.211 -3.121,-0.363 -4.23,-1.567 -3.992,-4.453 -6.481,-9.96 -8.7503,-15.382 -5.9648,-14.434 -9.8398,-29.5 -10.4648,-45.157 -0.4492,-11.531 -0.3399,-22.82 2.5273,-34.394 5.6133,-22.059 15.4298,-42.07 24.0588,-62.617 5.144,-12.246 13.023,-22.625 19.68,-33.828 6.25,-10.575 12.781,-20.926 18.453,-31.981 4.925,-9.484 5.484,-18.781 3.554,-28.937 -1.539,-8.329 -4.035,-16.434 -8.246,-23.797 -4.449,-7.969 -7.496,-16.692 -11.551,-24.903 -0.91,-1.847 -1.507,-4.511 -3.972,-4.297 -2.555,0.125 -2.735,2.801 -3.18,4.852 -3.621,16.535 -12.305,30.324 -21.445,43.887 -9.301,13.722 -18.5822,27.492 -28.2971,40.898 -7.4687,10.352 -13.6055,21.516 -19.1055,33.008 -3.9375,8.164 -5.75,17.48 -6.7187,26.68 -1.043,9.629 -1.1445,19.191 -0.6719,28.937 0.8438,18.184 4.1133,35.965 9.2266,53.184 3.4531,11.699 6.6172,23.64 11.4765,34.91 3.4493,8.184 5.7032,16.894 9.2383,25.019 4.75,10.915 10.4375,21.399 16.9219,31.333 1.7379,2.71 3.6409,5.304 4.1129,8.582 0.489,3.316 -0.933,5.046 -4.0231,4.902 -2.0078,-0.184 -4.2265,-0.414 -5.9336,-1.418 C 80.8398,621.16 67.4688,614.391 55.0039,605.891 48.9063,601.719 42.1953,598.602 36.3164,594.07 28.4844,588.063 21.6719,580.902 15.1406,573.551 11.8242,569.77 9.47656,564.879 7.90234,559.75 7.29297,557.848 6.66797,555.797 5.0625,554.488 3.25,552.934 1.61328,553.285 1.28125,555.914 c -1.140625,9.043 -1.445313,18.152 -0.945312,27.324 0.167968,4.325 -0.554688,8.696 -0.2695317,13.164 0.8867187,12.551 3.9296837,24.305 9.7656237,35.325 3.12107,5.925 7.87497,9.882 13.12107,13.164 13.5196,8.589 27.9141,15.332 42.5235,21.574 9.6679,4.137 19.3203,8.344 28.6914,13.215 12.793,6.59 26.145,11.75 39.105,17.941 14.336,6.797 29.086,12.75 43.633,19.02 15.055,6.574 30.207,12.828 45.438,18.765 15.867,6.215 31.886,12.274 48.719,15.574 11.703,2.297 23.386,5.473 35.234,6.692 13.016,1.355 26.019,0.808 39.148,-0.899 10.828,-1.335 20.957,-4.074 30.278,-9.414 13.39,-7.711 25.382,-17.129 31.953,-32.574 4.855,-11.461 6.875,-23.344 5.887,-35.543 -0.59,-7.402 -3.473,-14.441 -7,-20.828 -12.047,-21.949 -30.977,-35.445 -51.653,-46.992 -8.402,-4.758 -16.672,-9.734 -25.422,-13.602 -8.48,-3.804 -17.129,-7.257 -25.343,-11.488 -12.512,-6.473 -26.661,-10.574 -35.758,-22.598 -8.969,-11.875 -8.539,-25.546 5.179,-35.125 12.497,-8.839 26.641,-9.629 41.145,-9.308 4.887,0.129 9.816,0.109 14.672,0.051 18.687,-0.227 37.156,1.238 55.578,4.492 10.285,1.816 20.687,2.898 30.961,4.551 4.941,0.828 9.801,2.429 14.617,3.66 10.531,2.609 21.106,5.168 31.551,8.164 15.949,4.601 32.039,8.711 47.312,15.773 15.368,7.168 30.27,15.254 44.27,24.922 15.672,10.797 30.254,23.086 43.937,36.758 11.246,11.25 20.016,24.215 29.079,37.273 8.371,12.063 13.886,25.524 19.597,38.887 3.906,9.035 6.653,18.801 8.789,28.441 3.071,13.965 6.504,27.801 7.356,42.2 0.207,3.754 -0.555,7.429 -1.746,10.793 -1.543,4.281 -5.071,4.543 -7.621,0.925 -1.114,-1.503 -1.7,-3.187 -1.942,-5.097 -1.301,-9.129 -4.269,-17.84 -9.609,-25.18 -5.203,-7.137 -12.024,-12.453 -20.379,-15.398 -7.68,-2.657 -15.395,-5.012 -23.317,-6.727 -3.8,-0.781 -7.691,-1.051 -11.418,-2.445 -4.886,-1.887 -5.496,-3.957 -2.148,-7.91 4.754,-5.704 10.852,-9.743 16.375,-14.563 6.836,-5.84 14.742,-10.355 20.938,-17.137 3.093,-3.351 3.093,-7.093 0.867,-11.218 -11.094,-20.211 -28.051,-32.137 -49.16,-37.664 -9.516,-2.504 -19.297,-4.067 -29.157,-3.934 -8.398,0.121 -13.402,2.027 -11.195,13.742 1.875,10.024 3.418,20.227 7.152,29.703 6.727,17.09 13.926,33.922 26.012,47.828 0.883,1.036 1.594,2.325 0.414,3.395 -1.172,1.078 -2.074,-0.211 -2.855,-1.004 -13.539,-12.984 -29.219,-22.199 -46.543,-27.848 -12.676,-4.152 -26,-4.398 -39.207,-3.148 -9.118,0.859 -13.227,5.894 -12.969,15.734 0.277,11.282 1.949,22.43 5.73,33.133 5.098,14.297 12.739,26.82 22.063,38.5 4.004,5.067 8.211,9.84 13.531,13.453 1.508,0.942 2.176,2.61 1.684,4.188 -3.496,11.265 -0.164,21.586 3.23,32.039 5.703,17.676 14.766,32.883 30,43.14 5.668,3.832 11.934,6.645 17.883,9.922 4.156,2.325 5.367,5.746 3.418,10.258 -0.832,2.047 -1.988,3.985 -3.215,5.797 -4.039,5.836 -7.301,6.082 -12.289,0.977 -4.105,-4.235 -8.144,-8.575 -13.215,-11.442 -11.676,-6.676 -23.797,-12.519 -37.164,-13.531 -12.133,-0.902 -24.305,0.324 -36.258,2.973 -3.828,0.828 -4.515,4.718 -5.191,7.996 -1.41,7.078 1.144,13.504 3.394,19.804 4.411,12.215 10.387,23.524 18.809,33.395 4.785,5.59 9.176,11.141 15.629,15.152 7.746,4.781 16.266,6.262 24.613,8.836 1.364,0.449 2.778,0.641 4.196,0.91 3.468,0.496 5.855,1.989 6.355,6.149 0.625,4.73 -0.652,8.82 -3.773,12.054 -1.668,1.661 -4.008,1.043 -6.063,-0.043 -5.891,-3.23 -11.035,-7.832 -17.437,-10.238 -6.024,-2.105 -12.192,-3.734 -18.383,-4.785 -18.504,-3.191 -36.719,-0.41 -54.692,4.379 -5.078,1.387 -7.285,5.379 -6.672,10.98 0.719,6.473 4.223,11.848 6.418,17.711 4.266,11.633 10.168,22.553 17.661,32.333 13.89,18.16 31.98,29.5 53.75,34.07 3.316,0.72 6.625,1.33 9.925,1.99 3.844,0.73 6.129,3.32 6.395,7.23 0.406,5.96 0.422,11.95 0.414,17.96 0,2.19 0.125,4.96 -2.086,6.04 -2.266,1.1 -4.297,-0.57 -6.137,-1.98 -7.996,-6.04 -15.98,-12.08 -24.726,-16.94 -10.211,-5.63 -20.321,-11.73 -31.692,-14.4 -11.144,-2.58 -22.132,-6.08 -33.632,-7.26 -6.688,-0.69 -13.364,-1.59 -20.047,-2.46 -5.321,-0.61 -6.133,-2.5 -3.961,-7.6 3.972,-9.19 5.996,-19.13 9.492,-28.56 3.269,-8.75 6.277,-17.7 9.726,-26.391 3.649,-9.219 0.915,-17.223 -9.039,-23.137 -8.925,-5.313 -17.253,-11.469 -26.746,-15.758 -11.554,-5.137 -23.343,-8.945 -35.726,-11.238 -11.43,-2.098 -22.903,-3.629 -34.371,-4.473 -9.633,-0.793 -19.418,-1.379 -29.055,0.102 -9.266,1.422 -11.074,-0.567 -8.965,-10.082 1.578,-7.051 5.567,-13.145 7.672,-19.977 5.559,-17.715 13.469,-34.57 19.234,-52.269 1.989,-6.043 0.313,-9.207 -4.468,-13.723 -5.961,-5.586 -13.004,-9.316 -19.164,-14.391 -7.676,-6.328 -16.852,-9.242 -25.579,-13.086 -8.863,-3.914 -18.066,-6.906 -27.5,-8.996 -7.675,-1.621 -15.46,-2.824 -23.343,-3.457 -9.325,-0.773 -18.242,0.688 -26.985,3.254 -6.957,1.969 -11.527,-0.785 -15.316,-6.25 -4.649,-6.656 -9.609,-13.133 -14.84,-19.301 -11.781,-13.843 -23.488,-27.75 -35.762,-41.254 -4.1872,-4.605 -8.9684,-8.753 -14.0114,-12.503 -3.3984,-2.473 -6.0312,-6.012 -9.4883,-8.645 -8.7539,-6.746 -17.0117,-14.363 -26.0507,-20.742 -10.2618,-7.227 -21.3477,-13.153 -33.1914,-17.078 -5.5899,-1.871 -10.2852,-0.723 -8.711,7.793 1.1367,6.058 0.5313,12.48 2.5039,18.437 4.5313,13.692 6.1485,28.125 10.2266,41.813 5.4805,18.332 11.1992,36.629 17.8047,54.519 5.5351,14.961 11.8828,29.645 18.9219,43.91 5.75,11.696 11.6367,23.317 17.4804,35.004 3.4336,6.821 7.7969,13.102 11.9141,19.539 4.4726,6.891 8.1875,14.36 13.8082,20.414 0.43,0.414 0.801,0.961 1.25,1.422 5.969,5.895 9.641,4.617 11.801,-3.683 2.606,-9.61 6.313,-18.825 10.77,-27.664 3.715,-7.45 6.992,-15.114 10.875,-22.434 6.625,-12.324 12.914,-24.824 18.597,-37.656 0.77,-1.781 1.672,-4.371 4.239,-4.164 2.672,0.199 3.187,2.828 4.187,5.039 5.375,11.918 11.063,23.687 17.16,35.293 8.969,16.988 21.082,31.468 33.989,45.117 5.957,6.262 13.031,11.391 19.761,16.848 7.68,6.234 16.153,11.671 22.227,19.671 3.683,4.883 5.75,11.094 8.89,16.493 6.606,11.406 14.102,22.109 23.79,31.015 5.5,5.069 10.078,11.449 16.035,15.929 9.449,7.14 18.308,15.2 28.808,20.76 7.856,4.15 15.528,8.7 23.289,13.04 1.067,0.6 2.528,1.13 2.317,2.67 -0.176,1.85 -1.836,1.87 -3.117,1.99 -9.25,0.86 -18.485,1.97 -27.762,2.48 -16.336,0.94 -32.641,2.51 -48.672,6.19 -10.266,2.34 -20.281,5.78 -30.063,9.81 -1.761,0.78 -3.398,1.92 -3.394,4.19 -0.066,2.97 1.434,5.25 3.668,7.1 11.605,9.2 24.394,16.6 36.809,24.57 10.035,6.45 20.121,12.89 30.429,18.69 8.543,4.89 17.59,8.69 26.227,13.38 11.097,6.13 22.765,10.71 34.5,15.11 11.597,4.4 23.449,8.23 35.355,11.63 19.535,5.62 39.317,10.38 59.34,13.27 16.375,2.39 32.688,5.14 49.402,4.62 15.575,-0.51 31.125,-0.65 46.219,-4.92 13.949,-3.97 28.055,-7.77 40.727,-15.66 17.531,-10.98 28.183,-27.08 34.558,-47.33 6.274,-19.82 4.7,-39.21 -0.054,-58.8"
         style="fill:#ffffff;fill-opacity:1;fill-rule:nonzero;stroke:none"
         id="path12" />
    </g>
  </g>
</svg>
